<?xml version="1.0" encoding="utf-8"?>
<!-- Generator: Adobe Illustrator 24.1.0, SVG Export Plug-In . SVG Version: 6.00 Build 0)  -->
<svg version="1.1" id="Layer_1" xmlns="http://www.w3.org/2000/svg" xmlns:xlink="http://www.w3.org/1999/xlink" x="0px" y="0px"
	 viewBox="0 0 69 223" style="enable-background:new 0 0 69 223;" xml:space="preserve">
<style type="text/css">
	.st0{fill:#FFFFFF;}
	.st1{display:none;}
	.st2{display:inline;}
</style>
<g>
	<polygon className="st0" points="307.22,-1430.09 272.92,-1401.3 272.92,-1678.19 307.22,-1719.57 341.52,-1678.19 341.52,-1401.3 	"/>
	<path d="M307.22-1718.79l33.8,40.78v275.64l-33.15-27.83l-0.64-0.54l-0.64,0.54l-33.15,27.83v-275.64L307.22-1718.79
		 M307.22-1720.35l-34.8,41.98v278.14l34.8-29.21l34.8,29.21v-278.14L307.22-1720.35L307.22-1720.35z"/>
</g>
<g>
	<polygon className="st0" points="559.37,-1429.98 525.07,-1401.19 525.07,-1789.48 559.37,-1852.94 593.66,-1789.48 593.66,-1401.19 	
		"/>
	<path d="M559.37-1851.89l33.8,62.54v387.09l-33.15-27.83l-0.64-0.54l-0.64,0.54l-33.15,27.83v-387.09L559.37-1851.89
		 M559.37-1853.99l-34.8,64.39v389.49l34.8-29.21l34.8,29.21v-389.49L559.37-1853.99L559.37-1853.99z"/>
</g>
<g>
	<polygon className="st0" points="771.7,-1429.98 737.41,-1401.19 737.41,-2053.95 771.7,-2127.81 806,-2053.95 806,-1401.19 	"/>
	<path d="M771.7-2126.62l33.8,72.78v651.57l-33.15-27.83l-0.64-0.54l-0.64,0.54l-33.15,27.83v-651.57L771.7-2126.62 M771.7-2128.99
		l-34.8,74.94v653.94l34.8-29.21l34.8,29.21v-653.94L771.7-2128.99L771.7-2128.99z"/>
</g>
<g>
	<path d="M35.5-1019c3.86,0,7,3.14,7,7c0,3.86-3.14,7-7,7s-7-3.14-7-7C28.5-1015.86,31.64-1019,35.5-1019 M35.5-1020
		c-4.42,0-8,3.58-8,8c0,4.42,3.58,8,8,8s8-3.58,8-8C43.5-1016.42,39.92-1020,35.5-1020L35.5-1020z"/>
</g>
<g>
	<polygon className="st0" points="35.3,-1429.98 1,-1401.19 1,-1580.65 35.3,-1622.03 69.59,-1580.65 69.59,-1401.19 	"/>
	<path d="M35.3-1621.25l33.8,40.78v178.21l-33.15-27.83l-0.64-0.54l-0.64,0.54L1.5-1402.26v-178.21L35.3-1621.25 M35.3-1622.81
		l-34.8,41.98v180.71l34.8-29.21l34.8,29.21v-180.71L35.3-1622.81L35.3-1622.81z"/>
</g>
<g>
	<path d="M35.5-1471.99c3.86,0,7,3.14,7,7c0,3.86-3.14,7-7,7s-7-3.14-7-7C28.5-1468.85,31.64-1471.99,35.5-1471.99 M35.5-1472.99
		c-4.42,0-8,3.58-8,8c0,4.42,3.58,8,8,8s8-3.58,8-8C43.5-1469.41,39.92-1472.99,35.5-1472.99L35.5-1472.99z"/>
</g>
<g>
	<path d="M307.39-1472.1c3.86,0,7,3.14,7,7c0,3.86-3.14,7-7,7s-7-3.14-7-7C300.39-1468.96,303.53-1472.1,307.39-1472.1
		 M307.39-1473.1c-4.42,0-8,3.58-8,8c0,4.42,3.58,8,8,8s8-3.58,8-8C315.39-1469.52,311.81-1473.1,307.39-1473.1L307.39-1473.1z"/>
</g>
<g>
	<path d="M559.5-1471.99c3.86,0,7,3.14,7,7c0,3.86-3.14,7-7,7s-7-3.14-7-7C552.5-1468.85,555.64-1471.99,559.5-1471.99
		 M559.5-1472.99c-4.42,0-8,3.58-8,8c0,4.42,3.58,8,8,8s8-3.58,8-8C567.5-1469.41,563.92-1472.99,559.5-1472.99L559.5-1472.99z"/>
</g>
<g>
	<path d="M771.5-1471.99c3.86,0,7,3.14,7,7c0,3.86-3.14,7-7,7s-7-3.14-7-7C764.5-1468.85,767.64-1471.99,771.5-1471.99
		 M771.5-1472.99c-4.42,0-8,3.58-8,8c0,4.42,3.58,8,8,8s8-3.58,8-8C779.5-1469.41,775.92-1472.99,771.5-1472.99L771.5-1472.99z"/>
</g>
<g>
	<path d="M307.22-876.79l33.8,40.78v275.64l-33.15-27.83l-0.64-0.54l-0.64,0.54l-33.15,27.83v-275.64L307.22-876.79 M307.22-878.36
		l-34.8,41.98v278.14l34.8-29.21l34.8,29.21v-278.14L307.22-878.36L307.22-878.36z"/>
</g>
<g>
	<path d="M559.37-1009.9l33.8,62.54v387.09l-33.15-27.83l-0.64-0.54l-0.64,0.54l-33.15,27.83v-387.09L559.37-1009.9 M559.37-1012
		l-34.8,64.39v389.49l34.8-29.21l34.8,29.21v-389.49L559.37-1012L559.37-1012z"/>
</g>
<g>
	<path d="M771.7-1284.63l33.8,72.78v651.57l-33.15-27.83l-0.64-0.54l-0.64,0.54l-33.15,27.83v-651.57L771.7-1284.63 M771.7-1287
		l-34.8,74.94v653.94l34.8-29.21l34.8,29.21v-653.94L771.7-1287L771.7-1287z"/>
</g>
<g>
	<path d="M35.3-779.25l33.8,40.78v178.21L35.94-588.1l-0.64-0.54l-0.64,0.54L1.5-560.27v-178.21L35.3-779.25 M35.3-780.82
		L0.5-738.84v180.71l34.8-29.21l34.8,29.21v-180.71L35.3-780.82L35.3-780.82z"/>
</g>
<g>
	<path d="M35.5-676.76c3.89,0,7.06,3.2,7,7.1c-0.05,3.71-3.18,6.84-6.9,6.9c-3.91,0.06-7.1-3.1-7.1-7
		C28.5-673.62,31.64-676.76,35.5-676.76 M35.5-677.76c-4.94,0-8.84,4.48-7.84,9.6c0.61,3.12,3.12,5.63,6.24,6.24
		c5.12,1,9.6-2.9,9.6-7.84C43.5-674.18,39.92-677.76,35.5-677.76L35.5-677.76z"/>
</g>
<g>
	<path d="M307.39-630.11c3.86,0,7,3.14,7,7s-3.14,7-7,7s-7-3.14-7-7S303.53-630.11,307.39-630.11 M307.39-631.11c-4.42,0-8,3.58-8,8
		s3.58,8,8,8s8-3.58,8-8S311.81-631.11,307.39-631.11L307.39-631.11z"/>
</g>
<g>
	<path d="M559.5-630c3.86,0,7,3.14,7,7s-3.14,7-7,7s-7-3.14-7-7S555.64-630,559.5-630 M559.5-631c-4.42,0-8,3.58-8,8s3.58,8,8,8
		s8-3.58,8-8S563.92-631,559.5-631L559.5-631z"/>
</g>
<g>
	<path d="M771.5-630c3.86,0,7,3.14,7,7s-3.14,7-7,7s-7-3.14-7-7S767.64-630,771.5-630 M771.5-631c-4.42,0-8,3.58-8,8s3.58,8,8,8
		s8-3.58,8-8S775.92-631,771.5-631L771.5-631z"/>
</g>
<g>
	<path d="M308.5,769.59h-1v182.5c0.34,0,0.67,0.03,1,0.07V769.59z"/>
</g>
<g>
	<polygon points="308.5,768.7 308.5,769.59 312.99,769.59 308,760.95 303.01,769.59 307.5,769.59 307.5,768.7 	"/>
</g>
<g>
	<rect x="307.5" y="768.7" width="1" height="0.89"/>
</g>
<g>
	<rect x="558.5" y="650.65" width="1" height="302.44"/>
</g>
<g>
	<g>
		<polygon points="563.99,652.11 559,643.47 554.01,652.11 		"/>
	</g>
</g>
<g>
	<rect x="771.5" y="408.23" width="1" height="544.86"/>
</g>
<g>
	<g>
		<polygon points="776.99,410.44 772,401.81 767.01,410.44 		"/>
	</g>
</g>
<g className="st1">
	<path className="st2" d="M559.37-228.9l33.8,62.54v387.09l-33.15-27.83l-0.64-0.54l-0.64,0.54l-33.15,27.83v-387.09L559.37-228.9
		 M559.37-231l-34.8,64.39v389.49l34.8-29.21l34.8,29.21v-389.49L559.37-231L559.37-231z"/>
</g>
<g className="st1">
	<path className="st2" d="M771.7-503.63l33.8,72.78v651.57l-33.15-27.83l-0.64-0.54l-0.64,0.54l-33.15,27.83v-651.57L771.7-503.63
		 M771.7-506l-34.8,74.94v653.94l34.8-29.21l34.8,29.21v-653.94L771.7-506L771.7-506z"/>
</g>
<g>
	<path d="M559.5,151c3.86,0,7,3.14,7,7s-3.14,7-7,7s-7-3.14-7-7S555.64,151,559.5,151 M559.5,150c-4.42,0-8,3.58-8,8s3.58,8,8,8
		s8-3.58,8-8S563.92,150,559.5,150L559.5,150z"/>
</g>
<g>
	<path d="M771.5,151c3.86,0,7,3.14,7,7s-3.14,7-7,7s-7-3.14-7-7S767.64,151,771.5,151 M771.5,150c-4.42,0-8,3.58-8,8s3.58,8,8,8
		s8-3.58,8-8S775.92,150,771.5,150L771.5,150z"/>
</g>
<g>
	<path d="M35.02,102.55V46.84h4.49L34.52,42l-4.99,4.84h4.49v55.71c-4.18,0.15-7.5,2.09-7.5,4.47c0,2.48,3.58,4.48,8,4.48
		s8-2.01,8-4.48C42.52,104.63,39.21,102.69,35.02,102.55z M34.52,110.94c-3.86,0-7-1.76-7-3.92s3.14-3.92,7-3.92s7,1.76,7,3.92
		S38.38,110.94,34.52,110.94z"/>
</g>
<g>
	<g>
		<path d="M307.5,151c3.86,0,7,3.14,7,7s-3.14,7-7,7s-7-3.14-7-7S303.64,151,307.5,151 M307.5,150c-4.42,0-8,3.58-8,8s3.58,8,8,8
			s8-3.58,8-8S311.92,150,307.5,150L307.5,150z"/>
		<g>
			<rect x="307.5" y="-33.39" width="1" height="184.39"/>
		</g>
		<g>
			<polygon points="312.99,-32.5 308,-41.14 303.01,-32.5 			"/>
		</g>
	</g>
</g>
<g>
	<rect x="558.5" y="-151.44" width="1" height="302.44"/>
</g>
<g>
	<g>
		<polygon points="563.99,-149.98 559,-158.61 554.01,-149.98 		"/>
	</g>
</g>
<g className="st1">
	<rect x="771.5" y="-393.86" className="st2" width="1" height="544.86"/>
</g>
<g>
	<g>
		<polygon points="776.99,-391.64 772,-400.28 767.01,-391.64 		"/>
	</g>
</g>
<g className="st1">
	<polygon className="st2" points="35.02,852.72 39.51,852.72 34.52,844.09 29.54,852.72 34.02,852.72 34.02,952.11 35.02,952.11 	"/>
</g>
</svg>
